<svg width="41" height="40" viewBox="0 0 41 40" fill="none" xmlns="http://www.w3.org/2000/svg">
<path d="M9.32083 29.0929H8.87839C5.55592 27.5662 2.89294 24.8961 1.37519 21.5696C-0.142558 18.243 -0.413941 14.4817 0.610545 10.9718C1.63503 7.46181 3.88711 4.43707 6.95601 2.44927C10.0249 0.461475 13.7061 -0.356909 17.3281 0.143396C20.956 0.70501 24.2676 2.53374 26.6752 5.30506C29.0829 8.07637 30.4308 11.611 30.4799 15.2818C30.4935 15.4365 30.4749 15.5923 30.4251 15.7393C30.3752 15.8864 30.2954 16.0215 30.1905 16.136C30.0857 16.2505 29.9581 16.3419 29.816 16.4045C29.6739 16.467 29.5204 16.4993 29.3651 16.4993C29.2098 16.4993 29.0563 16.467 28.9142 16.4045C28.7721 16.3419 28.6446 16.2505 28.5397 16.136C28.4349 16.0215 28.355 15.8864 28.3052 15.7393C28.2554 15.5923 28.2367 15.4365 28.2503 15.2818C28.228 12.1595 27.0963 9.14678 25.0573 6.78203C23.0183 4.41727 20.205 2.85451 17.1199 2.37295C14.0096 1.87496 10.8244 2.52669 8.15971 4.20631C5.49499 5.88593 3.53313 8.47849 2.64084 11.4994C1.7877 14.5251 2.03621 17.7555 3.34212 20.6152C4.64804 23.4748 6.92657 25.7781 9.77194 27.1149C9.91615 27.1641 10.0465 27.2472 10.152 27.3571C10.2575 27.467 10.3352 27.6006 10.3785 27.7467C10.4218 27.8928 10.4295 28.0472 10.401 28.1968C10.3724 28.3465 10.3084 28.4872 10.2144 28.6071C10.2144 28.8673 9.77194 29.0929 9.32083 29.0929Z" fill="#237FD0"/>
<path d="M3.97692 24.8588C3.80892 24.8522 3.64436 24.8092 3.49459 24.7328C3.34482 24.6565 3.21339 24.5485 3.10939 24.4164C2.66695 23.9826 2.89251 23.3233 3.33495 22.8809L6.2325 20.9029C6.55705 20.765 6.84599 20.5551 7.07745 20.2891C7.30891 20.0231 7.47683 19.7079 7.56849 19.3674L9.30355 14.969C9.52911 14.7521 9.74599 14.3097 9.97155 14.3097L13.5371 13.4421C13.9795 13.2166 14.4046 12.9997 14.4046 12.5746L14.8557 10.1629C15.0726 9.50355 14.6302 9.06111 13.9882 8.84423L5.74668 5.54761C5.30424 5.32205 4.87915 4.68008 5.07868 4.22897C5.22617 3.95878 5.46082 3.74652 5.7444 3.62679C6.02797 3.50706 6.34374 3.48692 6.64023 3.56964L14.8818 6.6407C15.6409 6.95694 16.2721 7.51843 16.6747 8.23551C17.0773 8.95259 17.2279 9.78389 17.1026 10.5966L16.6689 12.991C16.4363 13.5911 16.0773 14.1342 15.6163 14.5833C15.1552 15.0323 14.6029 15.3769 13.9969 15.5936L11.3249 16.2529L9.76334 20.2089C9.34288 21.3051 8.55892 22.2238 7.54247 22.8115L4.64492 24.8588H3.97692Z" fill="#237FD0"/>
<path d="M23.3487 15.5942C23.1198 15.5971 22.8947 15.536 22.6985 15.4181C22.5024 15.3001 22.343 15.1298 22.2383 14.9262L21.5703 12.2543C21.3861 11.8245 21.3104 11.356 21.3497 10.8901C21.389 10.4242 21.5422 9.9751 21.7958 9.58226L24.0167 4.90628C24.1862 4.66399 24.4342 4.48764 24.7187 4.40703C25.0032 4.32641 25.3068 4.34648 25.5783 4.46384C25.8263 4.6347 26.0053 4.88837 26.0833 5.17932C26.1612 5.47027 26.1328 5.77947 26.0033 6.05142L23.7825 10.7274C23.6808 10.8491 23.6252 11.0026 23.6252 11.1612C23.6252 11.3197 23.6808 11.4732 23.7825 11.5949L24.4505 14.2669C24.5279 14.5295 24.504 14.8115 24.3835 15.0572C24.263 15.303 24.0548 15.4946 23.7998 15.5942H23.3487Z" fill="#237FD0"/>
<path d="M21.1191 27.0889C20.8225 27.0698 20.5253 27.1142 20.2471 27.219C19.969 27.3239 19.7165 27.4868 19.5063 27.697C19.2961 27.9071 19.1332 28.1597 19.0283 28.4378C18.9235 28.7159 18.8791 29.0132 18.8983 29.3098V35.5473C18.8793 35.8443 18.9236 36.1419 19.0284 36.4204C19.1332 36.699 19.296 36.952 19.506 37.1629C19.716 37.3737 19.9684 37.5375 20.2465 37.6433C20.5247 37.7492 20.8221 37.7947 21.1191 37.7769H35.5982C35.8953 37.7947 36.1927 37.7492 36.4708 37.6433C36.7489 37.5375 37.0013 37.3737 37.2113 37.1629C37.4213 36.952 37.5841 36.699 37.6889 36.4204C37.7937 36.1419 37.8381 35.8443 37.8191 35.5473V29.3098C37.8382 29.0132 37.7939 28.7159 37.689 28.4378C37.5842 28.1597 37.4212 27.9071 37.211 27.697C37.0009 27.4868 36.7483 27.3239 36.4702 27.219C36.1921 27.1142 35.8948 27.0698 35.5982 27.0889H21.1191ZM35.5982 39.9978H21.1191C19.9402 39.9932 18.8109 39.5229 17.9773 38.6892C17.1436 37.8556 16.6733 36.7263 16.6687 35.5473V29.3098C16.6733 28.1309 17.1436 27.0016 17.9773 26.1679C18.8109 25.3343 19.9402 24.8639 21.1191 24.8594H35.5982C36.7771 24.8639 37.9065 25.3343 38.7401 26.1679C39.5737 27.0016 40.0441 28.1309 40.0486 29.3098V35.5473C40.0441 36.7263 39.5737 37.8556 38.7401 38.6892C37.9065 39.5229 36.7771 39.9932 35.5982 39.9978Z" fill="#237FD0"/>
<path d="M22.4637 39.9973C22.3152 40.0061 22.1666 39.9834 22.0274 39.9308C21.8883 39.8782 21.7618 39.7969 21.6562 39.6921C21.5506 39.5873 21.4683 39.4614 21.4146 39.3227C21.3609 39.184 21.3371 39.0355 21.3446 38.8869V26.0041C21.3692 25.7254 21.4973 25.466 21.7037 25.2771C21.91 25.0882 22.1796 24.9834 22.4594 24.9834C22.7392 24.9834 23.0088 25.0882 23.2151 25.2771C23.4215 25.466 23.5496 25.7254 23.5742 26.0041V38.8869C23.583 39.035 23.5604 39.1834 23.5077 39.3221C23.455 39.4608 23.3735 39.5868 23.2686 39.6918C23.1637 39.7967 23.0377 39.8782 22.8989 39.9309C22.7602 39.9835 22.6119 40.0062 22.4637 39.9973Z" fill="#237FD0"/>
<path d="M34.2625 39.9982C34.1143 40.0071 33.966 39.9844 33.8273 39.9317C33.6885 39.8791 33.5625 39.7976 33.4576 39.6926C33.3527 39.5877 33.2712 39.4617 33.2185 39.323C33.1658 39.1843 33.1432 39.0359 33.152 38.8878V26.005C33.152 25.7105 33.269 25.428 33.4773 25.2198C33.6855 25.0115 33.9679 24.8945 34.2625 24.8945C34.557 24.8945 34.8394 25.0115 35.0477 25.2198C35.2559 25.428 35.3729 25.7105 35.3729 26.005V38.8878C35.3817 39.0359 35.3591 39.1843 35.3064 39.323C35.2537 39.4617 35.1722 39.5877 35.0673 39.6926C34.9624 39.7976 34.8364 39.8791 34.6976 39.9317C34.5589 39.9844 34.4106 40.0071 34.2625 39.9982Z" fill="#237FD0"/>
<path d="M31.8071 27.0891C31.6616 27.0963 31.5161 27.0734 31.3798 27.0218C31.2436 26.9702 31.1195 26.8911 31.0152 26.7893C30.911 26.6875 30.8289 26.5652 30.774 26.4302C30.7192 26.2952 30.6929 26.1504 30.6966 26.0047V24.8596C30.6595 24.2348 30.3851 23.6478 29.9295 23.2186C29.474 22.7894 28.8718 22.5503 28.2459 22.5503C27.62 22.5503 27.0177 22.7894 26.5622 23.2186C26.1067 23.6478 25.8323 24.2348 25.7951 24.8596V26.0047C25.7951 26.2992 25.6781 26.5817 25.4699 26.7899C25.2616 26.9982 24.9792 27.1152 24.6847 27.1152C24.3901 27.1152 24.1077 26.9982 23.8995 26.7899C23.6912 26.5817 23.5742 26.2992 23.5742 26.0047V24.8596C23.5742 23.6194 24.0669 22.4301 24.9438 21.5532C25.8207 20.6762 27.0101 20.1836 28.2502 20.1836C29.4904 20.1836 30.6797 20.6762 31.5566 21.5532C32.4335 22.4301 32.9262 23.6194 32.9262 24.8596V26.0047C32.93 26.1511 32.9035 26.2968 32.8481 26.4324C32.7928 26.568 32.7099 26.6907 32.6047 26.7926C32.4995 26.8945 32.3743 26.9735 32.237 27.0246C32.0997 27.0756 31.9533 27.0976 31.8071 27.0891Z" fill="#237FD0"/>
</svg>
