<svg width="42" height="30" viewBox="0 0 42 30" fill="none" xmlns="http://www.w3.org/2000/svg">
<path d="M29.6848 19.081L20.8114 27.6398C20.2491 28.1753 19.5207 28.4889 18.7551 28.5252C17.9895 28.5614 17.2361 28.3179 16.6283 27.8378C16.0205 27.3576 15.5976 26.6719 15.4344 25.9019C15.2712 25.1319 15.3783 24.3274 15.7367 23.6308L17.8436 19.6252C17.8732 19.5691 17.8881 19.506 17.8869 19.4422C17.8857 19.3784 17.8683 19.316 17.8366 19.2611C17.8048 19.2062 17.7598 19.1608 17.7058 19.1292C17.6519 19.0977 17.5908 19.081 17.5288 19.081H8.21663C7.25669 19.0809 6.32113 18.7701 5.54256 18.1927C4.76398 17.6153 4.18189 16.8007 3.87879 15.8641L1.05501 7.1262C1.00099 6.95818 0.986489 6.77939 1.01269 6.60449C1.03889 6.4296 1.10504 6.26358 1.20572 6.12006C1.3064 5.97654 1.43874 5.85961 1.59189 5.77886C1.74503 5.69811 1.91461 5.65585 2.08671 5.65553H2.39488C4.4186 5.65548 6.36983 6.43024 7.86827 7.82882L10.548 10.3224C10.9737 10.7218 11.5293 10.9429 12.1056 10.9424H17.5254C17.5875 10.9423 17.6485 10.9257 17.7025 10.8941C17.7564 10.8626 17.8015 10.8171 17.8332 10.7623C17.865 10.7074 17.8823 10.645 17.8835 10.5812C17.8848 10.5174 17.8699 10.4543 17.8403 10.3982L15.7367 6.38914C15.3721 5.69223 15.2602 4.88479 15.421 4.11091C15.5818 3.33703 16.0047 2.64708 16.6145 2.16417C17.2242 1.68126 17.9809 1.43683 18.7497 1.47449C19.5184 1.51215 20.2492 1.82945 20.8114 2.36977L29.5809 10.8425C29.6487 10.9061 29.737 10.9417 29.8288 10.9424H37.0407C38.0902 10.9424 39.0967 11.3708 39.8392 12.1335C40.5816 12.8963 40.9991 13.9309 41 15.01V15.01C41 15.5446 40.8976 16.074 40.6986 16.5679C40.4996 17.0618 40.208 17.5106 39.8403 17.8886C39.4727 18.2666 39.0362 18.5665 38.5558 18.7711C38.0755 18.9757 37.5606 19.081 37.0407 19.081H29.6714H29.6848Z" stroke="#237FD0" stroke-width="1.5"/>
</svg>
