<svg width="38" height="34" viewBox="0 0 38 34" fill="none" xmlns="http://www.w3.org/2000/svg">
<path d="M8.06071 27.459H7.85849C7.76806 27.4193 7.69116 27.3538 7.63726 27.2706C7.58336 27.1875 7.55482 27.0902 7.55516 26.9909V22.7786H5.10831C4.03568 22.7786 3.00697 22.3498 2.24851 21.5866C1.49004 20.8233 1.06393 19.7881 1.06393 18.7087V5.42048C1.06393 4.34108 1.49004 3.30589 2.24851 2.54263C3.00697 1.77938 4.03568 1.35059 5.10831 1.35059L28.8893 1.35059C29.9619 1.35059 30.9906 1.77938 31.7491 2.54263C32.5075 3.30589 32.9336 4.34108 32.9336 5.42048V18.7087C32.9336 19.7881 32.5075 20.8233 31.7491 21.5866C30.9906 22.3498 29.9619 22.7786 28.8893 22.7786H12.914L8.42471 27.3165C8.32311 27.4045 8.19465 27.4547 8.06071 27.459ZM5.10831 2.36806C4.30384 2.36806 3.53231 2.68965 2.96346 3.26209C2.39461 3.83454 2.07503 4.61093 2.07503 5.42048V18.7087C2.09091 19.5076 2.41749 20.2684 2.98462 20.8277C3.55176 21.387 4.31424 21.7002 5.10831 21.7001H8.06071C8.19479 21.7001 8.32338 21.7537 8.41819 21.8491C8.513 21.9445 8.56626 22.0739 8.56626 22.2088V25.77L12.3478 21.9036C12.4403 21.7932 12.5698 21.7208 12.7117 21.7001H28.8893C29.6937 21.7001 30.4653 21.3785 31.0341 20.806C31.603 20.2336 31.9226 19.4572 31.9226 18.6477V5.42048C31.9226 4.61093 31.603 3.83454 31.0341 3.26209C30.4653 2.68965 29.6937 2.36806 28.8893 2.36806H5.10831Z" fill="#237FD0" stroke="#237FD0" stroke-width="0.8"/>
<path d="M31.6193 32.6286C31.4843 32.6299 31.354 32.5789 31.2553 32.4861L28.586 29.8407H18.9402C18.2376 29.8407 17.5638 29.5598 17.067 29.0599C16.5702 28.5599 16.2911 27.8819 16.2911 27.1748V25.588C16.2911 25.453 16.3444 25.3236 16.4392 25.2282C16.534 25.1328 16.6626 25.0792 16.7967 25.0792C16.9291 25.0843 17.0548 25.1395 17.1486 25.2338C17.2423 25.3282 17.2972 25.4546 17.3022 25.588V27.1138C17.3022 27.551 17.4748 27.9702 17.782 28.2793C18.0891 28.5885 18.5058 28.7621 18.9402 28.7621H28.7882C28.9222 28.7664 29.0506 28.8166 29.1522 28.9046L31.1744 30.9395V29.3116C31.1744 29.1766 31.2277 29.0472 31.3225 28.9518C31.4173 28.8564 31.5459 28.8028 31.68 28.8028L34.5872 28.8024C35.0236 28.8025 35.4423 28.6294 35.7527 28.3209C36.0631 28.0123 36.2401 27.5931 36.2454 27.1541V20.5205C36.2445 20.1916 36.1457 19.8705 35.962 19.5985C35.7782 19.3265 35.5177 19.1161 35.2141 18.9943C35.1529 18.9677 35.0975 18.9292 35.0511 18.8811C35.0047 18.8329 34.9683 18.7759 34.9439 18.7135C34.9194 18.6511 34.9075 18.5844 34.9088 18.5174C34.91 18.4503 34.9245 18.3841 34.9512 18.3227C34.973 18.2599 35.0078 18.2025 35.0534 18.1543C35.0989 18.1061 35.1541 18.0682 35.2154 18.0432C35.2766 18.0182 35.3424 18.0066 35.4085 18.0091C35.4745 18.0117 35.5392 18.0284 35.5983 18.0582C36.0882 18.254 36.5082 18.5935 36.8039 19.0326C37.0996 19.4717 37.2573 19.9901 37.2565 20.5205V27.1541C37.2565 27.8665 36.9753 28.5498 36.4747 29.0535C35.9741 29.5573 35.2952 29.8403 34.5872 29.8403L32.1248 29.8407V32.1809C32.1252 32.2802 32.0966 32.3774 32.0427 32.4606C31.9889 32.5437 31.9119 32.6092 31.8215 32.6489L31.6193 32.6286Z" fill="#237FD0" stroke="#237FD0" stroke-width="0.8"/>
</svg>
