<svg width="36" height="42" viewBox="0 0 36 42" fill="none" xmlns="http://www.w3.org/2000/svg">
<path d="M32.9043 41H3.2487C2.80239 41.0012 2.36641 40.8686 1.99945 40.6201C1.63249 40.3715 1.35217 40.0189 1.19623 39.6098C1.04194 39.201 1.02242 38.7552 1.14041 38.335C1.2584 37.9148 1.50798 37.5414 1.85407 37.2671C2.24878 36.9324 2.64349 36.6492 2.88031 36.469C2.85681 35.9166 2.94721 35.3653 3.14612 34.8478C3.34503 34.3303 3.64839 33.8573 4.03811 33.457C4.03811 32.041 4.74858 24.4465 5.01172 21.7176C5.27486 18.9888 11.5901 14.3805 13.3532 13.325V10.5447C12.8532 8.71684 9.45874 7.37814 8.16937 7.01772C8.05394 6.99171 7.94833 6.93447 7.86457 6.85253C7.78082 6.77059 7.72231 6.66725 7.69572 6.55433C7.22207 4.67501 9.9587 3.33631 10.6429 3.05313C11.3156 2.41255 12.1845 2.00558 13.1163 1.89464C14.1832 1.75369 15.2384 1.53861 16.274 1.25104C17.4602 0.916321 18.719 0.916321 19.9053 1.25104C20.9314 1.54091 21.978 1.75603 23.0366 1.89464C23.9685 2.00558 24.8374 2.41255 25.5101 3.05313C26.1943 3.33631 28.9309 4.67501 28.4572 6.55433C28.4328 6.66405 28.3782 6.76517 28.2994 6.84682C28.2205 6.92846 28.1205 6.98755 28.0099 7.01772C26.7205 7.37814 23.2998 8.74258 22.7472 10.5447V13.325C24.4049 14.3805 30.7992 18.7056 31.1149 21.6919C31.4307 24.6782 31.957 31.9895 32.0885 33.4312C32.4735 33.8337 32.7721 34.3076 32.9664 34.825C33.1608 35.3424 33.247 35.8927 33.22 36.4433C33.4832 36.6235 33.8515 36.9067 34.2463 37.2413C34.5924 37.5156 34.8419 37.8891 34.9599 38.3093C35.0779 38.7295 35.0584 39.1753 34.9041 39.5841C34.7588 39.9919 34.4892 40.3463 34.1316 40.5995C33.774 40.8527 33.3456 40.9925 32.9043 41ZM8.95878 5.93647C10.3271 6.39986 14.0373 7.81579 14.5899 10.3387C14.6023 10.3808 14.6023 10.4254 14.5899 10.4674V13.6597C14.597 13.7702 14.5709 13.8802 14.5148 13.9763C14.4587 14.0724 14.375 14.1503 14.2741 14.2003C11.2744 16.1054 6.38003 19.8383 6.38003 21.9236C6.06427 24.9099 5.38011 33.7916 5.38011 33.8689C5.35965 34.033 5.28586 34.1864 5.1696 34.3065C4.83907 34.6081 4.58761 34.9831 4.43647 35.3998C4.28533 35.8166 4.23895 36.2628 4.30125 36.7007C4.3268 36.8252 4.31563 36.9543 4.26904 37.0728C4.22245 37.1913 4.14235 37.2944 4.03811 37.3701C3.58734 37.6594 3.15661 37.9776 2.74874 38.3226C2.67325 38.4349 2.62607 38.5631 2.61109 38.6967C2.5961 38.8304 2.61373 38.9655 2.66254 39.0912C2.71134 39.2168 2.78992 39.3294 2.89182 39.4195C2.99372 39.5097 3.11603 39.5749 3.2487 39.6098H32.9043C33.0842 39.6131 33.2606 39.5599 33.4074 39.458C33.5542 39.356 33.6638 39.2108 33.72 39.0434C33.788 38.8846 33.8016 38.7086 33.759 38.5415C33.7163 38.3745 33.6195 38.2255 33.4832 38.1166C32.799 37.576 32.1938 37.1641 32.1938 37.1641C32.0895 37.0885 32.0095 36.9853 31.9629 36.8668C31.9163 36.7483 31.9051 36.6193 31.9306 36.4948C31.9865 36.0571 31.937 35.6127 31.7863 35.1971C31.6355 34.7814 31.3876 34.4059 31.0623 34.1006C30.9949 34.0486 30.9408 33.982 30.9042 33.9061C30.8677 33.8301 30.8497 33.7468 30.8518 33.6629C30.8518 33.6629 30.1413 24.704 29.8519 21.7176C29.6414 19.7353 24.7996 16.0024 21.7999 13.9944C21.703 13.9397 21.6228 13.8608 21.5673 13.7658C21.5118 13.6708 21.4831 13.5632 21.4841 13.4538V10.4674C21.4841 10.4674 21.4841 10.4674 21.4841 10.3387C22.1156 7.81579 25.7732 6.39986 27.1679 5.93647C26.931 5.26712 25.6417 4.4948 24.8786 4.18587C24.8264 4.14175 24.7819 4.08957 24.747 4.0314C24.245 3.54315 23.5839 3.24253 22.8787 3.18185C21.7325 3.02532 20.5984 2.79309 19.4843 2.48675C18.5412 2.20284 17.5328 2.20284 16.5898 2.48675C15.5012 2.78886 14.3937 3.02105 13.2742 3.18185C12.6378 3.29127 12.0504 3.58758 11.5901 4.0314C11.5318 4.09678 11.4601 4.14941 11.3796 4.18587C10.406 4.54629 9.22191 5.29287 8.95878 5.93647Z" fill="#237FD0" stroke="#237FD0" stroke-width="0.5"/>
<path d="M22.1157 12.7072H14.011C13.8366 12.7072 13.6692 12.6394 13.5459 12.5187C13.4225 12.398 13.3532 12.2343 13.3532 12.0636C13.3532 11.8929 13.4225 11.7291 13.5459 11.6084C13.6692 11.4877 13.8366 11.4199 14.011 11.4199H22.1157C22.2901 11.4199 22.4575 11.4877 22.5808 11.6084C22.7042 11.7291 22.7735 11.8929 22.7735 12.0636C22.7735 12.2343 22.7042 12.398 22.5808 12.5187C22.4575 12.6394 22.2901 12.7072 22.1157 12.7072Z" fill="#237FD0" stroke="#237FD0" stroke-width="0.5"/>
<path d="M18.0897 33.8176C17.0283 33.8967 15.9773 33.5668 15.1612 32.8982C14.345 32.2296 13.8284 31.2754 13.7216 30.2392C13.7216 30.0685 13.7909 29.9048 13.9143 29.7841C14.0377 29.6634 14.205 29.5956 14.3795 29.5956C14.5539 29.5956 14.7212 29.6634 14.8446 29.7841C14.968 29.9048 15.0373 30.0685 15.0373 30.2392C15.1419 30.9343 15.5191 31.5623 16.0889 31.99C16.6587 32.4177 17.3763 32.6115 18.0897 32.5304C18.4436 32.5846 18.8052 32.5676 19.1521 32.4804C19.4991 32.3931 19.8242 32.2375 20.1075 32.0229C20.3908 31.8084 20.6264 31.5396 20.7998 31.2329C20.9731 30.9261 21.0807 30.588 21.1158 30.2392C21.0807 29.8904 20.9731 29.5523 20.7998 29.2456C20.6264 28.9388 20.3908 28.67 20.1075 28.4555C19.8242 28.241 19.4991 28.0853 19.1521 27.9981C18.8052 27.9108 18.4436 27.8938 18.0897 27.948C17.0268 28.034 15.9721 27.7065 15.1544 27.0366C14.3367 26.3667 13.8219 25.4085 13.7216 24.3697C13.8284 23.3335 14.345 22.3793 15.1612 21.7107C15.9773 21.0421 17.0283 20.7122 18.0897 20.7913C19.1483 20.7125 20.1962 21.0432 21.0081 21.7124C21.82 22.3816 22.3311 23.3357 22.4314 24.3697C22.4314 24.5404 22.3621 24.7041 22.2388 24.8248C22.1154 24.9455 21.9481 25.0133 21.7736 25.0133C21.5991 25.0133 21.4318 24.9455 21.3084 24.8248C21.1851 24.7041 21.1158 24.5404 21.1158 24.3697C21.0807 24.0209 20.9731 23.6828 20.7998 23.376C20.6264 23.0693 20.3908 22.8005 20.1075 22.586C19.8242 22.3714 19.4991 22.2158 19.1521 22.1285C18.8052 22.0413 18.4436 22.0243 18.0897 22.0785C17.3763 21.9974 16.6587 22.1912 16.0889 22.6189C15.5191 23.0466 15.1419 23.6746 15.0373 24.3697C15.1231 25.0789 15.4923 25.726 16.0642 26.1698C16.6361 26.6135 17.3643 26.8179 18.0897 26.7381C19.1483 26.6593 20.1962 26.99 21.0081 27.6591C21.82 28.3283 22.3311 29.2825 22.4314 30.3164C22.312 31.3365 21.7927 32.2714 20.9829 32.9244C20.1731 33.5774 19.1359 33.8976 18.0897 33.8176Z" fill="#237FD0" stroke="#237FD0" stroke-width="0.5"/>
<path d="M18.0892 22.0784C17.9149 22.0784 17.7476 22.0105 17.6244 21.8898C17.5011 21.7691 17.4318 21.6054 17.4318 21.4346V19.5549C17.457 19.4026 17.5373 19.2642 17.6579 19.165C17.7786 19.0657 17.9316 19.0122 18.0892 19.0142C18.2615 19.0206 18.4249 19.0905 18.5468 19.2098C18.6687 19.3292 18.7401 19.4892 18.7466 19.6579V21.5376C18.7214 21.6899 18.6412 21.8283 18.5205 21.9276C18.3998 22.0268 18.2468 22.0803 18.0892 22.0784Z" fill="#237FD0" stroke="#237FD0" stroke-width="0.5"/>
<path d="M18.0892 35.6965C17.9125 35.6899 17.7453 35.6164 17.6227 35.4916C17.5001 35.3668 17.4317 35.2004 17.4318 35.0272V33.1738C17.4318 33.0031 17.5011 32.8395 17.6244 32.7188C17.7476 32.5981 17.9149 32.5303 18.0892 32.5303C18.2636 32.5303 18.4308 32.5981 18.554 32.7188C18.6773 32.8395 18.7466 33.0031 18.7466 33.1738V35.0272C18.7467 35.2004 18.6783 35.3668 18.5557 35.4916C18.4331 35.6164 18.2659 35.6899 18.0892 35.6965Z" fill="#237FD0" stroke="#237FD0" stroke-width="0.5"/>
</svg>
