<svg width="41" height="43" viewBox="0 0 41 43" fill="none" xmlns="http://www.w3.org/2000/svg">
<path d="M16.6551 10.774L18.4402 9.59064C18.493 9.55591 18.5353 9.50699 18.5625 9.44927C18.5897 9.39156 18.6007 9.32731 18.5943 9.26363C18.5879 9.19994 18.5643 9.1393 18.5262 9.08842C18.488 9.03753 18.4368 8.99838 18.3782 8.97528L16.3918 8.18636C16.3445 8.16771 16.3019 8.13856 16.2672 8.10102C16.2324 8.06349 16.2062 8.01852 16.1906 7.9694C16.1751 7.92027 16.1704 7.86822 16.1771 7.81705C16.1838 7.76587 16.2015 7.71685 16.2291 7.67356L17.3908 5.85115C17.4243 5.79733 17.4426 5.73516 17.4437 5.67144C17.4448 5.60773 17.4287 5.54493 17.3971 5.48994C17.3655 5.43494 17.3197 5.38986 17.2646 5.35964C17.2095 5.32942 17.1474 5.31523 17.0849 5.31862L14.9591 5.42513C14.9092 5.42734 14.8594 5.41835 14.8133 5.3988C14.7671 5.37924 14.7258 5.3496 14.6922 5.31196C14.6586 5.27432 14.6335 5.22962 14.6187 5.18101C14.6039 5.1324 14.5998 5.08107 14.6067 5.03066L14.9358 2.88479C14.9456 2.82154 14.938 2.75678 14.9138 2.69767C14.8897 2.63856 14.85 2.58739 14.7991 2.54983C14.7482 2.51227 14.6881 2.48979 14.6254 2.48485C14.5628 2.47992 14.5 2.49274 14.4441 2.52189L12.5467 3.50015C12.5013 3.52365 12.4514 3.53651 12.4006 3.53779C12.3497 3.53907 12.2992 3.52874 12.2528 3.50756C12.2064 3.48638 12.1652 3.45488 12.1323 3.41537C12.0994 3.37586 12.0756 3.32935 12.0626 3.27925L11.5089 1.17283C11.4927 1.11121 11.4601 1.05536 11.4147 1.01139C11.3693 0.967419 11.3129 0.937042 11.2517 0.923591C11.1905 0.910139 11.1268 0.914135 11.0677 0.935139C11.0085 0.956143 10.9562 0.993343 10.9165 1.04265L9.57281 2.72701C9.54047 2.76672 9.49994 2.79868 9.45409 2.82062C9.40825 2.84256 9.35822 2.85394 9.30757 2.85394C9.25692 2.85394 9.20689 2.84256 9.16104 2.82062C9.1152 2.79868 9.07466 2.76672 9.04232 2.72701L7.70254 1.04265C7.66329 0.992206 7.61105 0.953869 7.55164 0.931926C7.49224 0.909983 7.42802 0.905297 7.36616 0.918393C7.30429 0.931488 7.24722 0.961849 7.20131 1.00608C7.15541 1.05032 7.12249 1.10668 7.10622 1.16888L6.55249 3.27925C6.53907 3.32901 6.51494 3.37509 6.48183 3.41415C6.44873 3.4532 6.4075 3.48425 6.36114 3.50503C6.31478 3.52581 6.26445 3.5358 6.21382 3.53428C6.1632 3.53275 6.11354 3.51974 6.06846 3.49621L4.16721 2.49033C4.11125 2.46118 4.04847 2.44836 3.98582 2.4533C3.92316 2.45823 3.86306 2.48072 3.81216 2.51828C3.76127 2.55583 3.72156 2.607 3.69743 2.66611C3.6733 2.72523 3.66569 2.78999 3.67544 2.85323L4.00457 4.99516C4.01143 5.04557 4.00733 5.09689 3.99255 5.1455C3.97778 5.19411 3.95269 5.23882 3.91907 5.27646C3.88545 5.31409 3.84412 5.34374 3.798 5.3633C3.75188 5.38285 3.70211 5.39184 3.6522 5.38962L1.52249 5.27917C1.46034 5.27655 1.39868 5.29129 1.34418 5.32182C1.28968 5.35234 1.24442 5.39748 1.2133 5.45234C1.18219 5.5072 1.16641 5.56969 1.16767 5.63304C1.16893 5.69638 1.18718 5.75817 1.22045 5.8117L2.38212 7.63411C2.40973 7.6774 2.42751 7.72642 2.43417 7.7776C2.44083 7.82878 2.43621 7.88083 2.42063 7.92995C2.40505 7.97908 2.37891 8.02404 2.34411 8.06158C2.30931 8.09911 2.26674 8.12826 2.21948 8.14691L0.233039 8.93584C0.171774 8.95663 0.117571 8.99473 0.0767438 9.0457C0.035917 9.09667 0.0101475 9.15841 0.00243759 9.22372C-0.00527235 9.28903 0.00539466 9.35523 0.0331959 9.41461C0.0609971 9.47398 0.104788 9.52409 0.159467 9.55909L1.94068 10.7425C1.98343 10.7704 2.01951 10.8077 2.04627 10.8517C2.07304 10.8957 2.08982 10.9452 2.09539 10.9966C2.10095 11.048 2.09517 11.1001 2.07845 11.1489C2.06173 11.1978 2.03451 11.2422 1.99877 11.2789L0.492477 12.8134C0.448498 12.859 0.417585 12.916 0.403073 12.9782C0.388561 13.0404 0.391001 13.1055 0.410131 13.1664C0.42926 13.2273 0.464353 13.2817 0.51162 13.3238C0.558888 13.3658 0.616536 13.394 0.678343 13.4051L2.78095 13.7483C2.83122 13.7565 2.87904 13.7761 2.9209 13.8056C2.96277 13.8351 2.9976 13.8738 3.02286 13.9188C3.04812 13.9638 3.06315 14.014 3.06686 14.0658C3.07056 14.1175 3.06284 14.1694 3.04426 14.2177L2.26982 16.2413C2.24856 16.2993 2.24293 16.3621 2.25352 16.4231C2.26411 16.4841 2.29053 16.5411 2.33004 16.5882C2.36955 16.6353 2.42071 16.6707 2.47821 16.6909C2.53571 16.711 2.59746 16.7152 2.65704 16.7028L4.71706 16.1466C4.76606 16.133 4.81742 16.1307 4.8674 16.14C4.91737 16.1492 4.96469 16.1697 5.00589 16.1999C5.04709 16.2302 5.08113 16.2694 5.10552 16.3148C5.12992 16.3602 5.14405 16.4105 5.14688 16.4622L5.25917 18.6278C5.26245 18.6916 5.28296 18.7533 5.31844 18.806C5.35392 18.8587 5.403 18.9004 5.46026 18.9265C5.51752 18.9526 5.58075 18.9621 5.64297 18.9539C5.70519 18.9458 5.76399 18.9203 5.8129 18.8802L7.4702 17.5193C7.50981 17.4867 7.55609 17.4636 7.60564 17.4516C7.65519 17.4396 7.70675 17.439 7.75652 17.45C7.8063 17.461 7.85303 17.4832 7.89328 17.515C7.93352 17.5468 7.96626 17.5873 7.98908 17.6337L8.95713 19.5666C8.98559 19.6238 9.02907 19.6719 9.08273 19.7055C9.13638 19.7391 9.19813 19.7568 9.2611 19.7568C9.32408 19.7568 9.38582 19.7391 9.43948 19.7055C9.49314 19.6719 9.53661 19.6238 9.56507 19.5666L10.537 17.6377C10.5594 17.5914 10.5917 17.5508 10.6316 17.519C10.6715 17.4872 10.7179 17.465 10.7674 17.454C10.8169 17.443 10.8682 17.4435 10.9175 17.4555C10.9668 17.4675 11.0127 17.4907 11.052 17.5233L12.7093 18.8881C12.7582 18.9281 12.817 18.9536 12.8792 18.9618C12.9415 18.97 13.0047 18.9605 13.0619 18.9344C13.1192 18.9083 13.1683 18.8666 13.2038 18.8138C13.2392 18.7611 13.2598 18.6995 13.263 18.6357L13.3792 16.4701C13.382 16.4184 13.3962 16.3681 13.4206 16.3227C13.4449 16.2773 13.479 16.238 13.5202 16.2078C13.5614 16.1776 13.6087 16.1571 13.6587 16.1478C13.7087 16.1386 13.76 16.1409 13.809 16.1545L15.8806 16.7146C15.9413 16.7326 16.0057 16.7328 16.0665 16.7153C16.1273 16.6977 16.182 16.6631 16.2244 16.6154C16.2668 16.5677 16.2952 16.5088 16.3063 16.4454C16.3174 16.382 16.3108 16.3168 16.2872 16.2571L15.5128 14.2295C15.4942 14.1812 15.4865 14.1293 15.4902 14.0776C15.4939 14.0259 15.5089 13.9757 15.5342 13.9306C15.5594 13.8856 15.5943 13.8469 15.6362 13.8174C15.678 13.7879 15.7258 13.7683 15.7761 13.7601L17.8787 13.4209C17.9408 13.4111 17.9991 13.384 18.0471 13.3426C18.095 13.3012 18.1308 13.2471 18.1504 13.1862C18.1701 13.1254 18.1728 13.0602 18.1583 12.9979C18.1439 12.9356 18.1128 12.8785 18.0684 12.8331L16.566 11.2947C16.5351 11.2558 16.5128 11.2106 16.5005 11.1621C16.4881 11.1137 16.4861 11.0631 16.4946 11.0138C16.503 10.9645 16.5217 10.9176 16.5494 10.8762C16.5771 10.8349 16.6131 10.8 16.6551 10.774Z" fill="#FFE600"/>
<path d="M34.7594 17.7515H10.2406C7.34631 17.7515 5 20.1208 5 23.0435V36.599C5 39.5217 7.34631 41.8911 10.2406 41.8911H34.7594C37.6537 41.8911 40 39.5217 40 36.599V23.0435C40 20.1208 37.6537 17.7515 34.7594 17.7515Z" stroke="#1301B9" stroke-width="2" stroke-miterlimit="10"/>
<path d="M29.4301 17.5033C29.3855 16.0792 28.6624 14.7258 27.4148 13.7315C26.1673 12.7371 24.4941 12.1807 22.752 12.1807C21.0099 12.1807 19.3367 12.7371 18.0892 13.7315C16.8417 14.7258 16.1185 16.0792 16.074 17.5033" stroke="#1301B9" stroke-width="2" stroke-miterlimit="10"/>
<path d="M16.2903 17.7515V41.8911" stroke="#1301B9" stroke-width="2" stroke-miterlimit="10"/>
<path d="M29.8387 17.7515V41.8911" stroke="#1301B9" stroke-width="2" stroke-miterlimit="10"/>
</svg>
