<svg width="41" height="40" viewBox="0 0 41 40" fill="none" xmlns="http://www.w3.org/2000/svg">
<path d="M9.80948 29.082H9.36758C6.04916 27.5572 3.38942 24.8904 1.87352 21.5679C0.357616 18.2454 0.0865628 14.4887 1.1098 10.983C2.13304 7.47726 4.38238 4.4562 7.44754 2.47083C10.5127 0.485449 14.1894 -0.331938 17.807 0.167758C21.4305 0.728689 24.7381 2.55519 27.1428 5.32313C29.5475 8.09108 30.8938 11.6214 30.9428 15.2877C30.9564 15.4422 30.9378 15.5978 30.888 15.7447C30.8383 15.8916 30.7585 16.0265 30.6538 16.1409C30.549 16.2552 30.4217 16.3466 30.2798 16.4091C30.1378 16.4715 29.9844 16.5038 29.8294 16.5038C29.6743 16.5038 29.5209 16.4715 29.379 16.4091C29.2371 16.3466 29.1097 16.2552 29.005 16.1409C28.9003 16.0265 28.8205 15.8916 28.7707 15.7447C28.721 15.5978 28.7023 15.4422 28.716 15.2877C28.6936 12.1692 27.5633 9.16019 25.5268 6.79831C23.4903 4.43643 20.6804 2.87557 17.5991 2.3946C14.4926 1.89722 11.3113 2.54815 8.64978 4.22573C5.9883 5.90331 4.02883 8.4927 3.13763 11.5099C2.28552 14.532 2.53373 17.7584 3.83806 20.6146C5.14238 23.4708 7.41814 25.7713 10.26 27.1064C10.4041 27.1556 10.5342 27.2386 10.6396 27.3484C10.745 27.4581 10.8226 27.5916 10.8659 27.7375C10.9091 27.8834 10.9168 28.0376 10.8883 28.1871C10.8598 28.3365 10.7959 28.477 10.702 28.5968C10.702 28.8567 10.26 29.082 9.80948 29.082Z" fill="#237FD0"/>
<path d="M4.47197 24.8536C4.30418 24.847 4.13982 24.8041 3.99023 24.7278C3.84064 24.6515 3.70938 24.5436 3.60549 24.4117C3.16359 23.9785 3.38888 23.32 3.83078 22.8781L6.7248 20.9025C7.04896 20.7648 7.33755 20.5551 7.56873 20.2894C7.79991 20.0237 7.96762 19.7089 8.05917 19.3688L9.79212 14.9758C10.0174 14.7592 10.234 14.3173 10.4593 14.3173L14.0205 13.4508C14.4624 13.2255 14.887 13.0089 14.887 12.5843L15.3376 10.1755C15.5542 9.51702 15.1123 9.07512 14.4711 8.8585L6.23958 5.5659C5.79768 5.34061 5.3731 4.69942 5.57239 4.24885C5.7197 3.979 5.95407 3.767 6.2373 3.64741C6.52053 3.52783 6.83591 3.50771 7.13205 3.59033L15.3636 6.65765C16.1217 6.9735 16.7522 7.53432 17.1543 8.25052C17.5564 8.96673 17.7069 9.79701 17.5817 10.6088L17.1485 13.0002C16.9162 13.5996 16.5576 14.142 16.0972 14.5905C15.6367 15.0391 15.085 15.3832 14.4797 15.5997L11.811 16.2582L10.2514 20.2093C9.8314 21.3042 9.04839 22.2218 8.03318 22.8087L5.13915 24.8536H4.47197Z" fill="#237FD0"/>
<path d="M23.8205 15.5997C23.5919 15.6025 23.367 15.5416 23.1711 15.4238C22.9752 15.3059 22.816 15.1358 22.7114 14.9326L22.0442 12.2638C21.8603 11.8346 21.7847 11.3667 21.8239 10.9013C21.8632 10.436 22.0162 9.98743 22.2695 9.59507L24.4877 4.92478C24.657 4.68278 24.9047 4.50665 25.1888 4.42613C25.473 4.34562 25.7762 4.36566 26.0473 4.48287C26.2951 4.65353 26.4739 4.90689 26.5517 5.19749C26.6295 5.48809 26.6012 5.7969 26.4719 6.06852L24.2537 10.7388C24.1522 10.8604 24.0966 11.0137 24.0966 11.1721C24.0966 11.3304 24.1522 11.4837 24.2537 11.6053L24.9209 14.274C24.9982 14.5362 24.9744 14.8179 24.8541 15.0634C24.7337 15.3089 24.5257 15.5003 24.2711 15.5997H23.8205Z" fill="#237FD0"/>
<path d="M21.5935 27.0805C21.2972 27.0614 21.0003 27.1057 20.7225 27.2104C20.4447 27.3151 20.1925 27.4779 19.9826 27.6878C19.7727 27.8977 19.6099 28.1499 19.5052 28.4277C19.4005 28.7055 19.3562 29.0024 19.3753 29.2987V35.5286C19.3563 35.8252 19.4006 36.1225 19.5053 36.4006C19.6099 36.6788 19.7725 36.9316 19.9823 37.1421C20.192 37.3527 20.4442 37.5163 20.7219 37.622C20.9997 37.7278 21.2968 37.7732 21.5935 37.7554H36.0549C36.3516 37.7732 36.6487 37.7278 36.9264 37.622C37.2042 37.5163 37.4563 37.3527 37.6661 37.1421C37.8758 36.9316 38.0384 36.6788 38.1431 36.4006C38.2477 36.1225 38.292 35.8252 38.2731 35.5286V29.2987C38.2922 29.0024 38.2479 28.7055 38.1432 28.4277C38.0384 28.1499 37.8757 27.8977 37.6658 27.6878C37.4559 27.4779 37.2036 27.3151 36.9258 27.2104C36.6481 27.1057 36.3512 27.0614 36.0549 27.0805H21.5935ZM36.0549 39.9736H21.5935C20.416 39.9691 19.288 39.4993 18.4554 38.6667C17.6228 37.834 17.153 36.7061 17.1484 35.5286V29.2987C17.153 28.1212 17.6228 26.9932 18.4554 26.1606C19.288 25.328 20.416 24.8582 21.5935 24.8536H36.0549C37.2324 24.8582 38.3603 25.328 39.193 26.1606C40.0256 26.9932 40.4954 28.1212 40.4999 29.2987V35.5286C40.4954 36.7061 40.0256 37.834 39.193 38.6667C38.3603 39.4993 37.2324 39.9691 36.0549 39.9736Z" fill="#237FD0"/>
<path d="M22.9365 39.9733C22.7882 39.982 22.6397 39.9594 22.5007 39.9069C22.3617 39.8543 22.2354 39.7731 22.1299 39.6684C22.0244 39.5638 21.9422 39.4381 21.8886 39.2995C21.835 39.1609 21.8112 39.0126 21.8188 38.8642V25.9971C21.8433 25.7188 21.9713 25.4597 22.1774 25.271C22.3835 25.0823 22.6527 24.9777 22.9322 24.9777C23.2116 24.9777 23.4809 25.0823 23.687 25.271C23.8931 25.4597 24.021 25.7188 24.0456 25.9971V38.8642C24.0544 39.0122 24.0318 39.1603 23.9792 39.2989C23.9266 39.4375 23.8452 39.5633 23.7404 39.6681C23.6356 39.7729 23.5097 39.8543 23.3712 39.9069C23.2326 39.9595 23.0845 39.9822 22.9365 39.9733Z" fill="#237FD0"/>
<path d="M34.7206 39.9736C34.5726 39.9825 34.4245 39.9598 34.2859 39.9072C34.1473 39.8546 34.0215 39.7732 33.9167 39.6684C33.8119 39.5636 33.7305 39.4378 33.6779 39.2992C33.6253 39.1606 33.6026 39.0125 33.6115 38.8645V25.9974C33.6115 25.7032 33.7283 25.4211 33.9363 25.2132C34.1443 25.0052 34.4264 24.8883 34.7206 24.8883C35.0147 24.8883 35.2968 25.0052 35.5048 25.2132C35.7128 25.4211 35.8297 25.7032 35.8297 25.9974V38.8645C35.8385 39.0125 35.8159 39.1606 35.7633 39.2992C35.7106 39.4378 35.6293 39.5636 35.5244 39.6684C35.4196 39.7732 35.2938 39.8546 35.1552 39.9072C35.0167 39.9598 34.8685 39.9825 34.7206 39.9736Z" fill="#237FD0"/>
<path d="M32.2685 27.0804C32.1231 27.0876 31.9779 27.0647 31.8418 27.0131C31.7057 26.9616 31.5817 26.8825 31.4776 26.7809C31.3735 26.6792 31.2915 26.5571 31.2367 26.4223C31.182 26.2874 31.1557 26.1427 31.1594 25.9973V24.8535C31.1223 24.2295 30.8482 23.6432 30.3932 23.2145C29.9383 22.7858 29.3367 22.5471 28.7116 22.5471C28.0865 22.5471 27.485 22.7858 27.03 23.2145C26.575 23.6432 26.301 24.2295 26.2638 24.8535V25.9973C26.2638 26.2914 26.147 26.5735 25.939 26.7815C25.731 26.9895 25.4489 27.1064 25.1547 27.1064C24.8606 27.1064 24.5785 26.9895 24.3705 26.7815C24.1625 26.5735 24.0457 26.2914 24.0457 25.9973V24.8535C24.0457 23.6149 24.5377 22.427 25.4136 21.5511C26.2894 20.6753 27.4773 20.1832 28.716 20.1832C29.9546 20.1832 31.1425 20.6753 32.0183 21.5511C32.8942 22.427 33.3862 23.6149 33.3862 24.8535V25.9973C33.3901 26.1435 33.3635 26.289 33.3083 26.4244C33.253 26.5599 33.1702 26.6824 33.0651 26.7842C32.9601 26.886 32.835 26.9649 32.6979 27.0159C32.5608 27.0668 32.4145 27.0888 32.2685 27.0804Z" fill="#237FD0"/>
</svg>
