<svg width="40" height="41" viewBox="0 0 40 41" fill="none" xmlns="http://www.w3.org/2000/svg">
<path fill-rule="evenodd" clip-rule="evenodd" d="M28.2088 11.0057H33.33C37.0535 11.0057 40 13.9418 40 17.5237V31.7762C40 35.358 37.0535 38.2941 33.33 38.2941H6.66996C2.94651 38.2941 0 35.358 0 31.7762V17.5237C0 13.8851 3.0046 11.0057 6.66996 11.0057H11.7437C11.7652 6.55776 15.4192 3 19.9763 3C24.5374 3 28.1872 6.60761 28.2088 11.0057ZM13.7188 11.0057H26.2337C26.2121 7.66534 23.4382 4.93004 19.9763 4.93004C16.51 4.93004 13.7401 7.62377 13.7188 11.0057ZM1.97506 17.5237C1.97506 14.9615 4.08465 12.9358 6.66996 12.9358H11.7909V36.3641H6.66996C4.04802 36.3641 1.97506 34.3026 1.97506 31.7762V17.5237ZM13.766 36.3641V12.9358H26.2339V36.3641H13.766ZM28.2089 36.3641H33.33C35.952 36.3641 38.0249 34.3026 38.0249 31.7762V17.5237C38.0249 14.9973 35.952 12.9358 33.33 12.9358H28.2089V36.3641Z" fill="#1301B9"/>
</svg>
