<svg width="42" height="32" viewBox="0 0 42 32" fill="none" xmlns="http://www.w3.org/2000/svg">
<path d="M37.2389 13.9268H4.76105C2.68388 13.9268 1 15.6633 1 17.8054V26.7827C1 28.9248 2.68388 30.6613 4.76105 30.6613H37.2389C39.3161 30.6613 41 28.9248 41 26.7827V17.8054C41 15.6633 39.3161 13.9268 37.2389 13.9268Z" stroke="#237FD0" stroke-width="1.5" stroke-miterlimit="10"/>
<path d="M1 18.9727H40.9961" stroke="#237FD0" stroke-width="1.5" stroke-miterlimit="10"/>
<path d="M37.2352 13.9436V6.38077C37.2352 5.04358 36.7201 3.76115 35.8032 2.81561C34.8864 1.87007 33.6429 1.33887 32.3462 1.33887H9.65414C9.01178 1.33834 8.37561 1.46836 7.782 1.7215C7.18839 1.97464 6.64897 2.34594 6.19457 2.81417C5.74017 3.28241 5.3797 3.83841 5.13376 4.45038C4.88782 5.06236 4.76123 5.71832 4.76123 6.38077V13.9436" stroke="#237FD0" stroke-width="1.5" stroke-miterlimit="10"/>
<path d="M19.7344 7.22728C19.5563 7.034 19.3174 6.91236 19.0603 6.88415C18.8032 6.85593 18.5448 6.92297 18.3313 7.07327C17.856 7.4112 17.2934 7.59469 16.7161 7.60014H10.6363C10.059 7.59469 9.49641 7.4112 9.02105 7.07327C8.8084 6.91669 8.54824 6.8442 8.28806 6.86904C8.02789 6.89388 7.78505 7.0144 7.6039 7.20858C7.42275 7.40276 7.31537 7.65766 7.30137 7.92672C7.28737 8.19579 7.36767 8.46107 7.52763 8.67413L7.69662 8.91325C8.05938 9.42646 8.25478 10.0452 8.25469 10.6803V13.9428H19.0938V10.7005C19.0937 10.0654 19.2891 9.44673 19.6518 8.93351L19.8208 8.69439C19.9799 8.47999 20.0587 8.21366 20.0428 7.94422C20.0269 7.67477 19.9174 7.42024 19.7344 7.22728V7.22728Z" stroke="#237FD0" stroke-width="1.5" stroke-miterlimit="10"/>
<path d="M34.3821 7.22728C34.2038 7.03296 33.9641 6.91066 33.7061 6.88243C33.4482 6.85419 33.189 6.92187 32.9751 7.07327C32.501 7.41065 31.9398 7.59413 31.3638 7.60014H25.284C24.7067 7.59469 24.1441 7.4112 23.6688 7.07327C23.4561 6.91669 23.1959 6.8442 22.9358 6.86904C22.6756 6.89388 22.4328 7.0144 22.2516 7.20858C22.0705 7.40276 21.9631 7.65766 21.9491 7.92672C21.9351 8.19579 22.0154 8.46107 22.1753 8.67413L22.3443 8.91325C22.7071 9.42646 22.9025 10.0452 22.9024 10.6803V13.9428H33.7415V10.7005C33.7409 10.0647 33.9378 9.44545 34.3035 8.93351L34.4685 8.69439C34.6291 8.48065 34.7089 8.21398 34.693 7.94406C34.6771 7.67414 34.5666 7.41939 34.3821 7.22728V7.22728Z" stroke="#237FD0" stroke-width="1.5" stroke-miterlimit="10"/>
</svg>
