<svg width="41" height="32" viewBox="0 0 41 32" fill="none" xmlns="http://www.w3.org/2000/svg">
<path d="M20.3923 16.8467C20.2354 16.856 20.0784 16.832 19.9315 16.7762C19.7847 16.7204 19.6513 16.6341 19.5402 16.523C19.4291 16.4119 19.3428 16.2785 19.287 16.1316C19.2312 15.9848 19.2071 15.8278 19.2164 15.6709V11.4324C19.213 11.1985 19.1604 10.9679 19.0621 10.7557C18.9638 10.5434 18.8219 10.3542 18.6457 10.2003C18.4694 10.0464 18.2628 9.93137 18.0392 9.86255C17.8157 9.79373 17.5801 9.77271 17.3478 9.80086H7.05703C6.82409 9.77133 6.58753 9.79131 6.36284 9.85949C6.13815 9.92768 5.93039 10.0425 5.75315 10.1965C5.5759 10.3506 5.43317 10.5403 5.33429 10.7532C5.23541 10.9662 5.18261 11.1977 5.17935 11.4324V15.6436C5.19258 15.8018 5.17178 15.961 5.11833 16.1105C5.06489 16.2601 4.98005 16.3964 4.86951 16.5104C4.75898 16.6244 4.62531 16.7134 4.47751 16.7714C4.3297 16.8294 4.17119 16.8551 4.01263 16.8467C3.85653 16.8547 3.70051 16.8297 3.55474 16.7733C3.40898 16.7169 3.27674 16.6304 3.16665 16.5194C3.05656 16.4085 2.97109 16.2756 2.91583 16.1294C2.86056 15.9832 2.83674 15.8269 2.84591 15.6709V11.4324C2.89094 10.3517 3.35644 9.33127 4.14314 8.58884C4.92984 7.84642 5.97547 7.44073 7.05703 7.45831H17.5848C18.6294 7.48814 19.623 7.91642 20.3619 8.65535C21.1009 9.39427 21.5291 10.3879 21.559 11.4324V15.6436C21.5722 15.8018 21.5514 15.961 21.498 16.1105C21.4445 16.2601 21.3597 16.3964 21.2491 16.5104C21.1386 16.6244 21.0049 16.7134 20.8571 16.7714C20.7093 16.8294 20.5508 16.8551 20.3923 16.8467Z" fill="#237FD0"/>
<path d="M36.7628 16.8472C36.6067 16.8551 36.4507 16.8301 36.3049 16.7737C36.1592 16.7173 36.0269 16.6308 35.9168 16.5198C35.8067 16.4089 35.7213 16.276 35.666 16.1298C35.6107 15.9836 35.5869 15.8274 35.5961 15.6713V11.4329C35.6011 11.2165 35.5621 11.0013 35.4813 10.8005C35.4005 10.5996 35.2797 10.4173 35.1262 10.2647C34.9727 10.112 34.7897 9.99225 34.5884 9.91258C34.3872 9.83291 34.1718 9.79505 33.9554 9.80129H23.1997C22.9833 9.79505 22.7679 9.83291 22.5667 9.91258C22.3654 9.99225 22.1824 10.112 22.0289 10.2647C21.8754 10.4173 21.7546 10.5996 21.6738 10.8005C21.593 11.0013 21.554 11.2165 21.559 11.4329V15.644C21.5734 15.8065 21.5538 15.9702 21.5014 16.1247C21.4491 16.2792 21.3651 16.4211 21.255 16.5415C21.1448 16.6618 21.0108 16.7578 20.8615 16.8236C20.7122 16.8893 20.5509 16.9233 20.3877 16.9233C20.2246 16.9233 20.0633 16.8893 19.914 16.8236C19.7647 16.7578 19.6307 16.6618 19.5205 16.5415C19.4103 16.4211 19.3264 16.2792 19.2741 16.1247C19.2217 15.9702 19.2021 15.8065 19.2165 15.644V11.4329C19.2486 10.3875 19.6788 9.39384 20.4192 8.65514C21.1596 7.91643 22.1543 7.48846 23.1997 7.45874H33.9554C35.0009 7.48846 35.9955 7.91643 36.7359 8.65514C37.4763 9.39384 37.9065 10.3875 37.9386 11.4329V15.644C37.952 15.803 37.931 15.9631 37.877 16.1133C37.8231 16.2635 37.7374 16.4003 37.6258 16.5144C37.5143 16.6286 37.3795 16.7174 37.2306 16.7748C37.0816 16.8322 36.9221 16.8569 36.7628 16.8472Z" fill="#237FD0"/>
<path d="M2.8459 26.1713H37.9386V19.1528C37.9408 18.5744 37.7255 18.0163 37.3355 17.5891C36.9455 17.162 36.4092 16.897 35.833 16.8467H4.95146C4.6568 16.8519 4.36636 16.9176 4.09813 17.0396C3.82991 17.1617 3.58963 17.3376 3.3922 17.5564C3.19477 17.7752 3.04441 18.0322 2.95043 18.3115C2.85646 18.5909 2.82088 18.8865 2.8459 19.1801V26.1713ZM39.1053 28.5139H1.67006C1.51442 28.5232 1.35858 28.4994 1.21281 28.444C1.06705 28.3887 0.934671 28.3031 0.824419 28.1928C0.714168 28.0826 0.628546 27.9502 0.573202 27.8044C0.517857 27.6586 0.494049 27.5028 0.503346 27.3472V19.1437C0.480151 18.543 0.577724 17.9437 0.790288 17.3814C1.00285 16.8191 1.32608 16.3051 1.74085 15.8699C2.15561 15.4348 2.65347 15.0873 3.20495 14.848C3.75643 14.6087 4.35032 14.4825 4.95146 14.4768H36.0518C37.2543 14.5287 38.3899 15.045 39.2195 15.9171C40.0491 16.7892 40.5081 17.9491 40.4999 19.1528V27.3563C40.4277 27.6761 40.2518 27.963 39.9996 28.1724C39.7473 28.3817 39.4329 28.5018 39.1053 28.5139Z" fill="#237FD0"/>
<path d="M1.67015 31.5584C1.51405 31.5663 1.35803 31.5413 1.21226 31.4849C1.06649 31.4285 0.934253 31.342 0.824164 31.231C0.714075 31.1201 0.628611 30.9872 0.573346 30.841C0.518081 30.6948 0.494257 30.5386 0.503428 30.3825V25.0503C0.49413 24.8946 0.517939 24.7388 0.573283 24.593C0.628627 24.4473 0.714249 24.3149 0.824501 24.2046C0.934752 24.0944 1.06713 24.0088 1.21289 23.9534C1.35866 23.8981 1.5145 23.8743 1.67015 23.8836C1.82617 23.8744 1.98239 23.8982 2.12859 23.9535C2.27479 24.0087 2.4077 24.0942 2.51865 24.2043C2.6296 24.3144 2.71609 24.4466 2.7725 24.5924C2.8289 24.7382 2.85393 24.8942 2.84598 25.0503V30.4281C2.84874 30.5812 2.81986 30.7332 2.76115 30.8746C2.70243 31.016 2.61515 31.1438 2.50476 31.2499C2.39438 31.356 2.26327 31.4382 2.11965 31.4912C1.97604 31.5443 1.823 31.5672 1.67015 31.5584Z" fill="#237FD0"/>
<path d="M39.1052 31.5584C38.9491 31.5663 38.793 31.5413 38.6473 31.4849C38.5015 31.4285 38.3693 31.342 38.2592 31.231C38.1491 31.1201 38.0636 30.9872 38.0084 30.841C37.9531 30.6948 37.9293 30.5386 37.9384 30.3825V25.0503C37.9384 24.7408 38.0614 24.4441 38.2802 24.2253C38.499 24.0065 38.7957 23.8835 39.1052 23.8835C39.4146 23.8835 39.7113 24.0065 39.9302 24.2253C40.149 24.4441 40.2719 24.7408 40.2719 25.0503V30.4281C40.2746 30.5804 40.2459 30.7316 40.1878 30.8723C40.1296 31.0131 40.0432 31.1404 39.9338 31.2464C39.8244 31.3524 39.6944 31.4347 39.5518 31.4884C39.4093 31.5421 39.2573 31.5659 39.1052 31.5584Z" fill="#237FD0"/>
<path d="M37.9386 16.847C37.7818 16.8562 37.6248 16.8322 37.4779 16.7764C37.331 16.7206 37.1977 16.6343 37.0866 16.5232C36.9755 16.4121 36.8892 16.2787 36.8334 16.1319C36.7776 15.985 36.7535 15.828 36.7628 15.6711V4.18624C36.7373 3.82236 36.5812 3.47994 36.3233 3.22201C36.0654 2.96408 35.723 2.80801 35.3591 2.78253H5.65336C5.31312 2.8172 4.99985 2.98331 4.78024 3.24548C4.56062 3.50765 4.45201 3.84519 4.47753 4.18624V15.6438C4.46488 15.9526 4.33894 16.246 4.12373 16.468C3.90853 16.6899 3.61915 16.8248 3.31081 16.847C3.00247 16.8248 2.71308 16.6899 2.49788 16.468C2.28268 16.246 2.15674 15.9526 2.14409 15.6438V4.18624C2.11699 3.22528 2.47052 2.2925 3.12774 1.5909C3.78496 0.889294 4.69268 0.47565 5.65336 0.439981H35.3591C35.8528 0.433863 36.3426 0.526585 36.7999 0.712686C37.2572 0.898787 37.6726 1.1745 38.0217 1.5236C38.3708 1.8727 38.6465 2.28812 38.8326 2.7454C39.0187 3.20268 39.1115 3.69258 39.1053 4.18624V15.6438C39.1186 15.802 39.0978 15.9612 39.0443 16.1108C38.9909 16.2603 38.9061 16.3966 38.7955 16.5106C38.685 16.6246 38.5513 16.7136 38.4035 16.7716C38.2557 16.8296 38.0972 16.8553 37.9386 16.847Z" fill="#237FD0"/>
</svg>
