<svg width="41" height="32" viewBox="0 0 41 32" fill="none" xmlns="http://www.w3.org/2000/svg">
<path d="M2.86057 22.1186V27.5268C2.86757 27.7043 2.91299 27.8782 2.9937 28.0364C3.07441 28.1947 3.18849 28.3335 3.32806 28.4434C3.43837 28.5825 3.57732 28.6963 3.73549 28.777C3.89365 28.8576 4.06732 28.9033 4.2447 28.9109H36.9689C37.3349 28.8853 37.6792 28.7283 37.9386 28.4689C38.198 28.2096 38.3549 27.8652 38.3806 27.4993V22.0911C36.9681 21.8152 35.6982 21.0498 34.7944 19.9298C33.8907 18.8097 33.411 17.4068 33.4399 15.9679C33.4157 14.5332 33.8977 13.1359 34.8012 12.0211C35.7047 10.9064 36.972 10.1456 38.3806 9.87218V4.47314C38.2715 4.10511 38.0588 3.77627 37.7679 3.52594C37.4769 3.2756 37.12 3.11437 36.7398 3.06151H4.2722C3.90627 3.08713 3.56191 3.24408 3.30253 3.50347C3.04314 3.76285 2.88619 4.10721 2.86057 4.47314V9.87218C4.28065 10.1387 5.56015 10.9003 6.47153 12.0215C7.38292 13.1427 7.86709 14.5508 7.83795 15.9954C7.86525 17.4395 7.3804 18.8466 6.46933 19.9674C5.55826 21.0882 4.27982 21.8503 2.86057 22.1186ZM36.7764 31.285H4.2722C3.28668 31.243 2.35626 30.8189 1.6781 30.1025C0.966273 29.4297 0.545283 28.5055 0.504791 27.5268V21.1744C0.495441 21.0179 0.519384 20.8612 0.575041 20.7146C0.630697 20.568 0.716803 20.4349 0.827677 20.324C0.938551 20.2131 1.07167 20.127 1.21826 20.0714C1.36485 20.0157 1.52158 19.9918 1.6781 20.0011C2.70498 19.9582 3.67425 19.5149 4.37839 18.7662C5.08253 18.0176 5.46557 17.023 5.44551 15.9954C5.46551 14.9687 5.08217 13.9751 4.3778 13.2279C3.67343 12.4807 2.70417 12.0394 1.6781 11.9988C1.51825 12.0088 1.35815 11.984 1.2088 11.9262C1.05944 11.8684 0.924377 11.7789 0.812888 11.6639C0.701399 11.549 0.616131 11.4112 0.562946 11.2601C0.509762 11.1091 0.489922 10.9483 0.504791 10.7888V4.47314C0.498638 3.97669 0.591883 3.48403 0.779035 3.02417C0.966187 2.56431 1.24346 2.14654 1.59453 1.79547C1.9456 1.4444 2.36337 1.16713 2.82323 0.979974C3.28309 0.792823 3.77575 0.699578 4.2722 0.70573H36.9689C37.935 0.7416 38.8479 1.15758 39.5088 1.86314C40.1698 2.56871 40.5253 3.50675 40.498 4.47314V10.7888C40.5074 10.9453 40.4834 11.1021 40.4278 11.2487C40.3721 11.3953 40.286 11.5284 40.1751 11.6392C40.0643 11.7501 39.9311 11.8362 39.7846 11.8919C39.638 11.9475 39.4812 11.9715 39.3247 11.9621C38.2986 12.0027 37.3294 12.444 36.625 13.1912C35.9206 13.9384 35.5373 14.932 35.5573 15.9587C35.5372 16.9863 35.9203 17.9809 36.6244 18.7296C37.3286 19.4783 38.2978 19.9215 39.3247 19.9644C39.4812 19.9551 39.638 19.979 39.7846 20.0347C39.9311 20.0904 40.0643 20.1765 40.1751 20.2873C40.286 20.3982 40.3721 20.5313 40.4278 20.6779C40.4834 20.8245 40.5074 20.9812 40.498 21.1378V27.4901C40.5104 27.9892 40.422 28.4856 40.2381 28.9497C40.0542 29.4138 39.7785 29.8361 39.4277 30.1912C39.0768 30.5463 38.658 30.827 38.1961 31.0166C37.7343 31.2061 37.239 31.3005 36.7398 31.2942L36.7764 31.285Z" fill="#237FD0"/>
<path d="M12.742 23.5301C12.5843 23.5394 12.4264 23.5153 12.2787 23.4591C12.131 23.403 11.9969 23.3162 11.8852 23.2045C11.7734 23.0928 11.6867 22.9587 11.6305 22.811C11.5744 22.6633 11.5502 22.5054 11.5596 22.3476V9.64293C11.5516 9.48595 11.5768 9.32905 11.6335 9.18246C11.6902 9.03587 11.7772 8.90288 11.8888 8.79217C12.0003 8.68146 12.134 8.59552 12.281 8.53994C12.428 8.48436 12.5851 8.4604 12.742 8.46963C12.8986 8.46028 13.0553 8.48422 13.2019 8.53987C13.3485 8.59553 13.4816 8.68164 13.5925 8.79251C13.7033 8.90338 13.7894 9.03651 13.8451 9.1831C13.9008 9.32969 13.9247 9.48641 13.9154 9.64293V22.1185C13.8986 22.449 13.7753 22.7652 13.5638 23.0197C13.3522 23.2742 13.0639 23.4532 12.742 23.5301Z" fill="#237FD0"/>
</svg>
