<svg width="41" height="32" viewBox="0 0 41 32" fill="none" xmlns="http://www.w3.org/2000/svg">
<path d="M37.3683 16.5055C37.0396 16.8399 36.6463 17.1047 36.212 17.2841C35.7777 17.4635 35.3113 17.5537 34.841 17.5493H26.4139C26.254 17.5548 26.0973 17.5958 25.9553 17.6691C25.8134 17.7425 25.6897 17.8464 25.5933 17.9733L16.9036 29.2917C16.8184 29.3676 16.7182 29.4249 16.6094 29.46C16.5006 29.4951 16.3856 29.5072 16.2718 29.4956H12.9075C12.6941 29.4956 12.4808 29.2917 12.2756 29.0797C12.1122 28.8404 12.0368 28.5524 12.0623 28.2642L16.3046 19.0334C16.4108 18.8798 16.4676 18.6979 16.4676 18.5115C16.4676 18.3252 16.4108 18.1432 16.3046 17.9896C16.0799 17.7699 15.7941 17.6222 15.484 17.5656H8.51748C7.98388 17.5386 7.46747 17.3691 7.02269 17.0749C6.5779 16.7807 6.2212 16.3727 5.99017 15.894L2.61767 7.53565C2.40433 7.33179 2.61767 6.90776 2.61767 6.72021C2.83102 6.50819 3.03616 6.29618 3.2495 6.29618L6.40865 6.50819L8.0908 9.85967C8.1905 10.0522 8.34254 10.2131 8.52966 10.3241C8.71677 10.4351 8.93145 10.4917 9.14931 10.4876H34.841C35.7832 10.5182 36.6818 10.8893 37.3683 11.5313C38.0534 12.2739 38.4288 13.2475 38.4186 14.2549C38.3311 15.1006 37.9614 15.8929 37.3683 16.5055ZM16.083 3.54813C15.9869 3.43374 15.9342 3.28944 15.9342 3.14041C15.9342 2.99137 15.9869 2.84707 16.083 2.73269C16.2882 2.52067 16.5015 2.31681 16.7149 2.31681H20.2925C20.5058 2.31681 20.711 2.52067 20.9243 2.73269L24.7153 8.1717H18.1508L16.083 3.54813ZM38.8289 9.82705C37.7671 8.76748 36.3292 8.16431 34.8246 8.14724H27.4396L22.6475 1.45244C22.3869 1.0728 22.0386 0.760692 21.6317 0.542218C21.2249 0.323743 20.7713 0.205252 20.3089 0.196655L16.7313 0.196655C16.2229 0.223891 15.7284 0.37127 15.2888 0.626553C14.8493 0.881836 14.4774 1.23765 14.204 1.66445C13.9922 2.12374 13.8826 2.62299 13.8826 3.12818C13.8826 3.63336 13.9922 4.13261 14.204 4.5919L15.8861 8.3511H9.78115L8.30414 5.00778C8.20505 4.81648 8.0543 4.6564 7.86878 4.54549C7.68326 4.43459 7.47031 4.37724 7.25383 4.37988L3.46285 4.17602C2.97001 4.16179 2.4813 4.26901 2.0403 4.48813C1.59931 4.70725 1.21977 5.03145 0.935526 5.43181C0.691478 5.87477 0.546122 6.3647 0.509312 6.86839C0.472502 7.37207 0.545099 7.87774 0.722181 8.3511L4.29981 16.7339C4.6589 17.5997 5.26857 18.3402 6.05156 18.8613C6.83456 19.3825 7.75562 19.6609 8.69801 19.6613H13.966L10.3884 27.408C10.1766 27.8673 10.067 28.3666 10.067 28.8717C10.067 29.3769 10.1766 29.8762 10.3884 30.3355C10.6412 30.7806 11.0083 31.151 11.4524 31.4089C11.8964 31.6668 12.4014 31.8029 12.9157 31.8033H16.28C17.1622 31.7659 17.9951 31.3886 18.6021 30.7513L27.0457 19.8733H34.841C36.3186 19.9298 37.7585 19.402 38.8453 18.4055C39.8935 17.3424 40.4824 15.9145 40.4864 14.4262C40.5422 13.5889 40.4255 12.7492 40.1433 11.9584C39.8611 11.1676 39.4194 10.4423 38.8453 9.82705H38.8289Z" fill="#237FD0"/>
</svg>
