<svg width="40" height="34" viewBox="0 0 40 34" fill="none" xmlns="http://www.w3.org/2000/svg">
<path d="M2.36057 23.7302V29.6792C2.36757 29.8745 2.41299 30.0658 2.4937 30.2398C2.57441 30.4139 2.68849 30.5667 2.82806 30.6875C2.93837 30.8406 3.07732 30.9657 3.23549 31.0544C3.39365 31.1432 3.56732 31.1934 3.7447 31.2018H36.4689C36.8349 31.1736 37.1792 31.001 37.4386 30.7156C37.698 30.4303 37.8549 30.0515 37.8806 29.649V23.7C36.4681 23.3965 35.1982 22.5546 34.2944 21.3226C33.3907 20.0905 32.911 18.5472 32.9399 16.9645C32.9157 15.3863 33.3977 13.8492 34.3012 12.6231C35.2047 11.3969 36.472 10.5599 37.8806 10.2592V4.32025C37.7715 3.91542 37.5588 3.55369 37.2679 3.27832C36.9769 3.00295 36.62 2.8256 36.2398 2.76745H3.7722C3.40627 2.79564 3.06191 2.96828 2.80253 3.25361C2.54314 3.53893 2.38619 3.91772 2.36057 4.32025V10.2592C3.78065 10.5524 5.06015 11.3902 5.97153 12.6235C6.88292 13.8568 7.36709 15.4057 7.33795 16.9947C7.36525 18.5832 6.8804 20.1311 5.96933 21.364C5.05826 22.5969 3.77982 23.4351 2.36057 23.7302ZM36.2764 33.8133H3.7722C2.78668 33.7671 1.85626 33.3005 1.1781 32.5126C0.466273 31.7724 0.0452831 30.7558 0.00479083 29.6792V22.6917C-0.00455924 22.5195 0.0193839 22.3471 0.0750406 22.1858C0.130697 22.0246 0.216803 21.8782 0.327677 21.7562C0.438551 21.6342 0.571674 21.5395 0.718263 21.4783C0.864852 21.4171 1.02158 21.3907 1.1781 21.401C2.20498 21.3538 3.17425 20.8662 3.87839 20.0427C4.58253 19.2191 4.96557 18.125 4.94551 16.9947C4.96551 15.8654 4.58217 14.7724 3.8778 13.9505C3.17343 13.1285 2.20417 12.6431 1.1781 12.5985C1.01825 12.6094 0.858153 12.5822 0.708797 12.5186C0.559442 12.455 0.424377 12.3566 0.312888 12.2301C0.201399 12.1036 0.116131 11.9521 0.0629465 11.7859C0.00976169 11.6198 -0.0100782 11.4429 0.00479083 11.2675V4.32025C-0.00136167 3.77415 0.0918834 3.23223 0.279035 2.72638C0.466187 2.22053 0.743461 1.76099 1.09453 1.37481C1.4456 0.988633 1.86337 0.683631 2.32323 0.477764C2.78309 0.271897 3.27575 0.169328 3.7722 0.176096H36.4689C37.435 0.215552 38.3479 0.67313 39.0088 1.44925C39.6698 2.22537 40.0253 3.25722 39.998 4.32025V11.2675C40.0074 11.4397 39.9834 11.6121 39.9278 11.7733C39.8721 11.9346 39.786 12.081 39.6751 12.203C39.5643 12.3249 39.4311 12.4196 39.2846 12.4809C39.138 12.5421 38.9812 12.5684 38.8247 12.5581C37.7986 12.6028 36.8294 13.0882 36.125 13.9101C35.4206 14.7321 35.0373 15.825 35.0573 16.9544C35.0372 18.0847 35.4203 19.1788 36.1244 20.0023C36.8286 20.8259 37.7978 21.3135 38.8247 21.3607C38.9812 21.3504 39.138 21.3767 39.2846 21.438C39.4311 21.4992 39.5643 21.5939 39.6751 21.7159C39.786 21.8378 39.8721 21.9843 39.9278 22.1455C39.9834 22.3067 40.0074 22.4791 39.998 22.6513V29.6389C40.0104 30.1879 39.922 30.7339 39.7381 31.2445C39.5542 31.755 39.2785 32.2194 38.9277 32.6101C38.5768 33.0007 38.158 33.3095 37.6961 33.518C37.2343 33.7265 36.739 33.8303 36.2398 33.8234L36.2764 33.8133Z" fill="#237FD0"/>
<path d="M12.242 25.2826C12.0843 25.2928 11.9264 25.2662 11.7787 25.2045C11.631 25.1428 11.4969 25.0473 11.3852 24.9244C11.2734 24.8015 11.1867 24.654 11.1305 24.4915C11.0744 24.329 11.0502 24.1553 11.0596 23.9818V10.0067C11.0516 9.834 11.0768 9.66141 11.1335 9.50016C11.1902 9.33891 11.2772 9.19262 11.3888 9.07084C11.5003 8.94906 11.634 8.85452 11.781 8.79338C11.928 8.73225 12.0851 8.70589 12.242 8.71604C12.3986 8.70575 12.5553 8.73209 12.7019 8.79331C12.8485 8.85453 12.9816 8.94925 13.0925 9.07121C13.2033 9.19317 13.2894 9.33961 13.3451 9.50086C13.4008 9.66211 13.4247 9.8345 13.4154 10.0067V23.7298C13.3986 24.0933 13.2753 24.4411 13.0638 24.7211C12.8522 25.001 12.5639 25.198 12.242 25.2826Z" fill="#237FD0"/>
</svg>
