<svg width="32" height="42" viewBox="0 0 32 42" fill="none" xmlns="http://www.w3.org/2000/svg">
<path d="M26.212 8.01953H5.43985C2.98779 8.01953 1 10.2324 1 12.9621V36.0573C1 38.787 2.98779 40.9998 5.43985 40.9998H26.212C28.6641 40.9998 30.6519 38.787 30.6519 36.0573V12.9621C30.6519 10.2324 28.6641 8.01953 26.212 8.01953Z" stroke="#FF5D00" stroke-width="2" stroke-miterlimit="10"/>
<path d="M21.455 7.26847C21.455 5.60597 20.8618 4.01156 19.8058 2.83599C18.7498 1.66043 17.3175 1 15.8241 1C14.3307 1 12.8984 1.66043 11.8424 2.83599C10.7864 4.01156 10.1931 5.60597 10.1931 7.26847" stroke="#FF5D00" stroke-width="2" stroke-miterlimit="10"/>
<path d="M10.1931 8.22852V12.5389" stroke="#FF5D00" stroke-width="2" stroke-miterlimit="10"/>
<path d="M21.4551 8.22852V12.5389" stroke="#FF5D00" stroke-width="2" stroke-miterlimit="10"/>
</svg>
