<svg width="40" height="40" viewBox="0 0 40 40" fill="none" xmlns="http://www.w3.org/2000/svg">
<path d="M38.5658 16.1346C37.8053 12.4585 35.9717 9.09049 33.297 6.45648C30.6223 3.82247 27.2265 2.04079 23.5391 1.33677C19.8518 0.632749 16.0385 1.038 12.5815 2.50128C9.12443 3.96456 6.17898 6.42015 4.11759 9.55748C2.0562 12.6948 0.971466 16.373 1.00057 20.1268C1.02967 23.8807 2.17131 27.5416 4.2811 30.6466C6.39089 33.7516 9.37406 36.1612 12.8534 37.5707C16.3327 38.9802 20.1518 39.3263 23.8278 38.5652C28.7564 37.5447 33.0779 34.6083 35.8418 30.4019C38.6056 26.1955 39.5854 21.0635 38.5658 16.1346V16.1346Z" stroke="#6633CC" stroke-width="2" stroke-miterlimit="10"/>
<path d="M28.6003 3.37695C28.6003 3.37695 24.9449 6.87205 27.0795 9.03989C29.2142 11.2077 30.0769 13.0769 30.3645 14.0558C30.652 15.0346 31.1719 18.0707 32.3885 19.2984C34.208 21.1345 38.7649 20.2109 38.7649 20.2109" stroke="#6633CC" stroke-width="2" stroke-miterlimit="10"/>
<path d="M22.2516 39.007C23.7614 33.6593 15.2891 34.5773 16.5721 26.8903C16.9537 24.5566 14.6808 22.6818 11.5562 22.6818C7.58553 22.6818 3.48211 18.8936 2.89038 11.5938" stroke="#6633CC" stroke-width="2" stroke-miterlimit="10"/>
<path d="M27.345 37.8964C27.345 37.8964 26.969 34.9101 27.898 33.3727C28.8271 31.8353 30.1101 29.5015 30.0382 26.3714C29.9663 23.2413 23.955 22.6385 21.389 21.6984C18.823 20.7583 15.527 20.1776 15.4661 17.4623C15.4053 14.7469 20.8526 14.4594 20.8526 11.2961C20.8526 8.70242 17.9824 7.75123 14.0559 7.75123C9.23912 7.75123 10.4447 3.68652 10.4447 3.68652" stroke="#6633CC" stroke-width="2" stroke-miterlimit="10"/>
</svg>
