<svg width="38" height="39" viewBox="0 0 38 39" fill="none" xmlns="http://www.w3.org/2000/svg">
<g clip-path="url(#clip0_18_32)">
<path d="M36.6551 15.9429C35.9326 12.4505 34.1907 9.25091 31.6497 6.7486C29.1087 4.24629 25.8827 2.5537 22.3797 1.88487C18.8768 1.21605 15.2541 1.60104 11.9699 2.99116C8.68576 4.38128 5.88758 6.71408 3.92926 9.69455C1.97093 12.675 0.940438 16.1693 0.968087 19.7354C0.995736 23.3016 2.08029 26.7795 4.08459 29.7292C6.08889 32.6789 8.9229 34.9681 12.2282 36.3071C15.5336 37.6461 19.1618 37.9749 22.6539 37.2519C27.3362 36.2824 31.4416 33.4929 34.0672 29.4967C36.6929 25.5006 37.6237 20.6252 36.6551 15.9429V15.9429Z" stroke="#1301B9" stroke-width="2" stroke-miterlimit="10"/>
<path d="M27.1879 3.82275C27.1879 3.82275 23.7152 7.14309 25.7431 9.20254C27.771 11.262 28.5906 13.0377 28.8638 13.9676C29.137 14.8976 29.6309 17.7818 30.7867 18.9482C32.5151 20.6924 36.8442 19.815 36.8442 19.815" stroke="#1301B9" stroke-width="2" stroke-miterlimit="10"/>
<path d="M21.1566 37.672C22.5909 32.5917 14.5422 33.4638 15.7611 26.1611C16.1236 23.9441 13.9643 22.1631 10.996 22.1631C7.22382 22.1631 3.32557 18.5643 2.76343 11.6294" stroke="#1301B9" stroke-width="2" stroke-miterlimit="10"/>
<path d="M25.9953 36.6161C25.9953 36.6161 25.638 33.7791 26.5207 32.3186C27.4033 30.858 28.6221 28.641 28.5538 25.6674C28.4855 22.6938 22.7748 22.1211 20.3371 21.228C17.8993 20.3349 14.7681 19.7832 14.7103 17.2037C14.6525 14.6241 19.8274 14.3509 19.8274 11.3458C19.8274 8.8818 17.1008 7.97817 13.3706 7.97817C8.79468 7.97817 9.93998 4.1167 9.93998 4.1167" stroke="#1301B9" stroke-width="2" stroke-miterlimit="10"/>
</g>
<defs>
<clipPath id="clip0_18_32">
<rect width="38" height="38" fill="white" transform="translate(0 0.59668)"/>
</clipPath>
</defs>
</svg>
