<svg width="32" height="41" viewBox="0 0 32 41" fill="none" xmlns="http://www.w3.org/2000/svg">
<path d="M26.4995 8.55713H5.49047C3.01045 8.55713 1 10.6593 1 13.2525V35.193C1 37.7862 3.01045 39.8884 5.49047 39.8884H26.4995C28.9795 39.8884 30.99 37.7862 30.99 35.193V13.2525C30.99 10.6593 28.9795 8.55713 26.4995 8.55713Z" stroke="#1301B9" stroke-width="2" stroke-miterlimit="10"/>
<path d="M21.6883 7.84372C21.6883 6.26434 21.0882 4.74965 20.0202 3.63287C18.9521 2.51608 17.5036 1.88867 15.9931 1.88867C14.4827 1.88867 13.0341 2.51608 11.966 3.63287C10.898 4.74965 10.298 6.26434 10.298 7.84372" stroke="#1301B9" stroke-width="2" stroke-miterlimit="10"/>
<path d="M10.298 8.75635V12.8512" stroke="#1301B9" stroke-width="2" stroke-miterlimit="10"/>
<path d="M21.6883 8.75635V12.8512" stroke="#1301B9" stroke-width="2" stroke-miterlimit="10"/>
</svg>
