<svg width="38" height="38" viewBox="0 0 38 38" fill="none" xmlns="http://www.w3.org/2000/svg">
<path d="M19.0473 37.6582C14.2779 37.6582 9.70371 35.727 6.33117 32.2895C2.95864 28.852 1.06396 24.1897 1.06396 19.3284C1.06396 14.467 2.95864 9.80473 6.33117 6.36722C9.70371 2.92971 14.2779 0.998535 19.0473 0.998535C20.4435 1.00572 21.8346 1.16999 23.1954 1.48836C23.3621 1.53114 23.5057 1.63873 23.5955 1.7881C23.6854 1.93747 23.7142 2.11675 23.676 2.28755C23.6288 2.44726 23.5249 2.58331 23.3846 2.66912C23.2443 2.75493 23.0776 2.78434 22.9172 2.7516C21.6497 2.44182 20.3507 2.28606 19.0473 2.28755C15.5139 2.29287 12.0733 3.44083 9.22074 5.56616C6.36818 7.6915 4.25083 10.6846 3.17347 14.1146C2.09611 17.5446 2.11432 21.2346 3.22549 24.6533C4.33665 28.0721 6.48344 31.0433 9.35684 33.1393C12.2302 35.2353 15.682 36.3479 19.2153 36.317C22.7486 36.2861 26.1811 35.1132 29.0188 32.9673C31.8565 30.8213 33.9529 27.813 35.0063 24.3752C36.0597 20.9375 36.0158 17.2478 34.8808 13.8372C34.8489 13.7579 34.8335 13.6728 34.8356 13.5872C34.8376 13.5016 34.8571 13.4173 34.8928 13.3398C34.9285 13.2622 34.9795 13.1931 35.0428 13.1367C35.106 13.0803 35.18 13.0379 35.2602 13.0122C35.3399 12.984 35.4242 12.9724 35.5084 12.978C35.5925 12.9836 35.6747 13.0062 35.7501 13.0447C35.8255 13.0831 35.8927 13.1365 35.9475 13.2018C36.0024 13.267 36.0439 13.3428 36.0696 13.4247C36.9903 16.1831 37.2526 19.1256 36.8347 22.008C36.4168 24.8904 35.3307 27.6297 33.6666 29.9989C32.0025 32.368 29.8082 34.2986 27.2658 35.6306C24.7233 36.9627 21.906 37.6577 19.0473 37.6582Z" fill="#237FD0" stroke="#237FD0" stroke-width="0.3"/>
<path d="M19.0473 37.6579C18.9474 37.6811 18.8436 37.6811 18.7438 37.6579C15.6632 35.7384 13.1175 33.045 11.3505 29.8356C9.5835 26.6263 8.65429 23.0083 8.65182 19.3281C8.67709 15.6601 9.61934 12.0591 11.3896 8.86543C13.1598 5.67174 15.6996 2.99074 18.7691 1.07568C18.8621 1.02378 18.9665 0.996582 19.0726 0.996582C19.1786 0.996582 19.283 1.02378 19.3761 1.07568C20.5181 1.71849 21.5869 2.48798 22.563 3.37013C22.6789 3.4906 22.7438 3.65258 22.7438 3.82128C22.7438 3.98998 22.6789 4.15196 22.563 4.27244C22.5062 4.33409 22.4377 4.38323 22.3615 4.41682C22.2854 4.45042 22.2033 4.46775 22.1204 4.46775C22.0374 4.46775 21.9553 4.45042 21.8792 4.41682C21.8031 4.38323 21.7345 4.33409 21.6778 4.27244C20.9014 3.54191 20.0539 2.89404 19.1484 2.33892C16.3199 4.14593 13.9826 6.64899 12.3517 9.61778C10.7208 12.5866 9.84857 15.9258 9.81531 19.3281C9.82081 22.7384 10.6696 26.0922 12.2832 29.0797C13.8968 32.0671 16.2231 34.5918 19.0473 36.4204C21.5817 34.7991 23.7194 32.6093 25.2974 30.018C26.8754 27.4267 27.852 24.5023 28.1528 21.4679C28.1485 21.3708 28.1649 21.2739 28.201 21.184C28.237 21.0941 28.2918 21.0132 28.3616 20.947C28.4314 20.8808 28.5144 20.8308 28.605 20.8006C28.6956 20.7703 28.7916 20.7605 28.8863 20.7718C28.9696 20.7814 29.0501 20.8077 29.1233 20.8493C29.1965 20.8909 29.2609 20.9469 29.3127 21.0141C29.3644 21.0812 29.4026 21.1582 29.4249 21.2406C29.4473 21.3229 29.4533 21.4089 29.4427 21.4937C29.1004 24.7925 28.0076 27.9644 26.2513 30.7571C24.4949 33.5498 22.1235 35.8862 19.3255 37.5805C19.2392 37.6262 19.1444 37.6526 19.0473 37.6579Z" fill="#237FD0" stroke="#237FD0" stroke-width="0.3"/>
<path d="M19.0469 37.6582C18.8793 37.6582 18.7186 37.5903 18.6001 37.4694C18.4816 37.3486 18.415 37.1846 18.415 37.0137V1.64304C18.415 1.47211 18.4816 1.30818 18.6001 1.18731C18.7186 1.06644 18.8793 0.998535 19.0469 0.998535C19.2145 0.998535 19.3752 1.06644 19.4937 1.18731C19.6122 1.30818 19.6787 1.47211 19.6787 1.64304V37.0137C19.6787 37.1846 19.6122 37.3486 19.4937 37.4694C19.3752 37.5903 19.2145 37.6582 19.0469 37.6582Z" fill="#237FD0" stroke="#237FD0" stroke-width="0.3"/>
<path d="M36.4742 19.9722H31.9215C31.7765 19.942 31.6465 19.861 31.554 19.7433C31.4616 19.6255 31.4126 19.4784 31.4156 19.3276C31.4156 19.1567 31.4822 18.9928 31.6008 18.8719C31.7194 18.751 31.8802 18.6831 32.0479 18.6831H36.4742C36.6419 18.6831 36.8028 18.751 36.9213 18.8719C37.0399 18.9928 37.1066 19.1567 37.1066 19.3276C37.1066 19.4986 37.0399 19.6625 36.9213 19.7834C36.8028 19.9043 36.6419 19.9722 36.4742 19.9722Z" fill="#237FD0" stroke="#237FD0" stroke-width="0.3"/>
<path d="M27.2929 19.9722H1.69629C1.52859 19.9722 1.36775 19.9043 1.24917 19.7834C1.13058 19.6625 1.06396 19.4986 1.06396 19.3276C1.06396 19.1567 1.13058 18.9928 1.24917 18.8719C1.36775 18.751 1.52859 18.6831 1.69629 18.6831H27.2929C27.4586 18.6895 27.6158 18.7594 27.7331 18.879C27.8503 18.9985 27.9189 19.1587 27.9252 19.3276C27.9252 19.4986 27.8586 19.6625 27.74 19.7834C27.6214 19.9043 27.4606 19.9722 27.2929 19.9722Z" fill="#237FD0" stroke="#237FD0" stroke-width="0.3"/>
<path d="M29.5945 19.8176C29.4381 19.8178 29.2863 19.7632 29.1646 19.6629C28.8863 19.4309 23.3219 13.9397 23.3219 7.31422C23.22 6.42204 23.3075 5.51797 23.5786 4.66331C23.8496 3.80866 24.2978 3.02339 24.8927 2.36078C25.4876 1.69816 26.2154 1.17369 27.0266 0.82292C27.8379 0.472153 28.7136 0.303295 29.5945 0.327798C30.4775 0.299516 31.3561 0.465583 32.1705 0.814682C32.9848 1.16378 33.7157 1.68771 34.3134 2.35076C34.9112 3.01382 35.3616 3.80041 35.6341 4.65695C35.9066 5.51348 35.9947 6.41983 35.8925 7.31422C35.8925 13.9397 30.2775 19.4309 30.0245 19.6629C29.9051 19.7672 29.7518 19.8223 29.5945 19.8176ZM29.5945 1.61681C28.8831 1.6128 28.1788 1.7618 27.5277 2.05409C26.8765 2.34637 26.2932 2.77537 25.8158 3.31305C25.3384 3.85074 24.9777 4.48502 24.7571 5.17448C24.5366 5.86393 24.4612 6.59305 24.5359 7.31422C24.9214 11.4547 26.7102 15.3289 29.5945 18.2708C32.4789 15.3289 34.2676 11.4547 34.6532 7.31422C34.7279 6.59305 34.6525 5.86393 34.4319 5.17448C34.2114 4.48502 33.8507 3.85074 33.3733 3.31305C32.8959 2.77537 32.3125 2.34637 31.6614 2.05409C31.0103 1.7618 30.306 1.6128 29.5945 1.61681Z" fill="#237FD0" stroke="#237FD0" stroke-width="0.3"/>
<path d="M29.5945 11.2851C28.8091 11.2851 28.0414 11.0477 27.3883 10.6029C26.7353 10.1582 26.2263 9.52604 25.9258 8.78644C25.6252 8.04685 25.5466 7.23302 25.6998 6.44787C25.853 5.66272 26.2312 4.94151 26.7866 4.37545C27.3419 3.80939 28.0495 3.42389 28.8198 3.26772C29.5901 3.11154 30.3886 3.1917 31.1142 3.49805C31.8398 3.8044 32.46 4.32318 32.8963 4.9888C33.3326 5.65442 33.5655 6.43698 33.5655 7.23751C33.5689 7.77 33.4685 8.29787 33.2701 8.79049C33.0717 9.28311 32.7794 9.73067 32.4099 10.1072C32.0405 10.4837 31.6014 10.7817 31.1181 10.9839C30.6348 11.1861 30.1169 11.2885 29.5945 11.2851ZM29.5945 4.50476C29.0582 4.50478 28.5339 4.66724 28.0884 4.9715C27.6428 5.27577 27.2959 5.70813 27.0918 6.21369C26.8878 6.71924 26.8357 7.27521 26.9422 7.811C27.0487 8.3468 27.3089 8.83826 27.69 9.223C28.071 9.60774 28.5556 9.86841 29.0822 9.97192C29.6088 10.0754 30.1538 10.0171 30.6478 9.80437C31.1419 9.59162 31.5628 9.23404 31.8571 8.77703C32.1514 8.32001 32.3059 7.78416 32.3009 7.23751C32.2942 6.51038 32.0061 5.81534 31.4993 5.30358C30.9925 4.79181 30.3079 4.50473 29.5945 4.50476Z" fill="#237FD0" stroke="#237FD0" stroke-width="0.3"/>
</svg>
